# xmcd CD database file
#
# Track frame offsets:
#	182
#	14160
#	26380
#	38517
#	53097
#	68175
#	79517
#	93812
#	108465
#	121315
#	134905
#	150662
#	164397
#	178570
#	191835
#	206230
#	220405
#	234550
#
# Disc length: 3317 seconds
#
# Revision: 0
# Processed by: cddbd v1.5.1PL0 Copyright (c) Steve Scherf et al.
# Submitted via: CDex 1.51
#
DISCID=fb0cf312
DTITLE=Fats Waller and His Orchestra - Chant Of The Groove [RM]
DYEAR=1997
DGENRE=Jazz
TTITLE0=Chant Of The Groove 
TTITLE1=Come And Get It
TTITLE2=Rump Steak Serenade
TTITLE3=Ain't Nothing To It
TTITLE4=We Need A Little Love
TTITLE5=You Must Be Losing Your Mind
TTITLE6=Really Fine
TTITLE7=In The Gloaming
TTITLE8=You Had An Evening To Spare
TTITLE9=Let's Break The Good News
TTITLE10=Skrontch
TTITLE11=I Simply Adore You
TTITLE12=The Shiek Of Araby
TTITLE13=Hold My Hand
TTITLE14=Inside
TTITLE15=Fat And Greasy
TTITLE16=Functionizin'
TTITLE17=I Got Rhythm
EXTD=YEAR: 1997
EXTT0=
EXTT1=
EXTT2=
EXTT3=
EXTT4=
EXTT5=
EXTT6=
EXTT7=
EXTT8=
EXTT9=
EXTT10=
EXTT11=
EXTT12=
EXTT13=
EXTT14=
EXTT15=
EXTT16=
EXTT17=
PLAYORDER=
